<svg width="114" height="94" viewBox="0 0 114 94" fill="none" xmlns="http://www.w3.org/2000/svg">
<ellipse cx="20.1793" cy="3.38433" rx="2.5" ry="2.62469" transform="rotate(14.4844 20.1793 3.38433)" fill="#0B50FF"/>
<ellipse cx="9.22817" cy="45.7771" rx="2.5" ry="2.62469" transform="rotate(14.4844 9.22817 45.7771)" fill="#0B50FF"/>
<ellipse cx="56.381" cy="12.7362" rx="2.5" ry="2.62469" transform="rotate(14.4844 56.381 12.7362)" fill="#0B50FF"/>
<ellipse cx="45.4298" cy="55.129" rx="2.5" ry="2.62469" transform="rotate(14.4844 45.4298 55.129)" fill="#0B50FF"/>
<ellipse cx="92.5827" cy="22.0881" rx="2.5" ry="2.62469" transform="rotate(14.4844 92.5827 22.0881)" fill="#0B50FF"/>
<ellipse cx="81.6312" cy="64.4808" rx="2.5" ry="2.62469" transform="rotate(14.4844 81.6312 64.4808)" fill="#0B50FF"/>
<ellipse cx="14.7038" cy="24.5806" rx="2.5" ry="2.62469" transform="rotate(14.4844 14.7038 24.5806)" fill="#0B50FF"/>
<ellipse cx="3.75259" cy="66.9731" rx="2.5" ry="2.62469" transform="rotate(14.4844 3.75259 66.9731)" fill="#0B50FF"/>
<ellipse cx="50.9054" cy="33.9325" rx="2.5" ry="2.62469" transform="rotate(14.4844 50.9054 33.9325)" fill="#0B50FF"/>
<ellipse cx="39.9542" cy="76.325" rx="2.5" ry="2.62469" transform="rotate(14.4844 39.9542 76.325)" fill="#0B50FF"/>
<ellipse cx="87.1071" cy="43.2843" rx="2.5" ry="2.62469" transform="rotate(14.4844 87.1071 43.2843)" fill="#0B50FF"/>
<ellipse cx="76.1559" cy="85.6768" rx="2.5" ry="2.62469" transform="rotate(14.4844 76.1559 85.6768)" fill="#0B50FF"/>
<ellipse cx="38.2802" cy="8.06027" rx="2.5" ry="2.62469" transform="rotate(14.4844 38.2802 8.06027)" fill="#0B50FF"/>
<ellipse cx="27.329" cy="50.453" rx="2.5" ry="2.62469" transform="rotate(14.4844 27.329 50.453)" fill="#0B50FF"/>
<ellipse cx="74.4818" cy="17.4121" rx="2.5" ry="2.62469" transform="rotate(14.4844 74.4818 17.4121)" fill="#0B50FF"/>
<ellipse cx="63.5307" cy="59.8049" rx="2.5" ry="2.62469" transform="rotate(14.4844 63.5307 59.8049)" fill="#0B50FF"/>
<ellipse cx="110.683" cy="26.764" rx="2.5" ry="2.62469" transform="rotate(14.4844 110.683 26.764)" fill="#0B50FF"/>
<ellipse cx="99.7321" cy="69.1568" rx="2.5" ry="2.62469" transform="rotate(14.4844 99.7321 69.1568)" fill="#0B50FF"/>
<ellipse cx="32.8046" cy="29.2565" rx="2.5" ry="2.62469" transform="rotate(14.4844 32.8046 29.2565)" fill="#0B50FF"/>
<ellipse cx="21.8534" cy="71.6491" rx="2.5" ry="2.62469" transform="rotate(14.4844 21.8534 71.6491)" fill="#0B50FF"/>
<ellipse cx="69.0062" cy="38.6084" rx="2.5" ry="2.62469" transform="rotate(14.4844 69.0062 38.6084)" fill="#0B50FF"/>
<ellipse cx="58.0551" cy="81.0009" rx="2.5" ry="2.62469" transform="rotate(14.4844 58.0551 81.0009)" fill="#0B50FF"/>
<ellipse cx="105.208" cy="47.9603" rx="2.5" ry="2.62469" transform="rotate(14.4844 105.208 47.9603)" fill="#0B50FF"/>
<ellipse cx="94.2567" cy="90.3528" rx="2.5" ry="2.62469" transform="rotate(14.4844 94.2567 90.3528)" fill="#0B50FF"/>
</svg>
