<svg width="115" height="96" viewBox="0 0 115 96" fill="none" xmlns="http://www.w3.org/2000/svg">
<ellipse cx="3.13675" cy="29.485" rx="2.5" ry="2.62469" transform="rotate(-16.318 3.13675 29.485)" fill="#EB00FF"/>
<ellipse cx="15.4387" cy="71.5057" rx="2.5" ry="2.62469" transform="rotate(-16.318 15.4387 71.5057)" fill="#EB00FF"/>
<ellipse cx="39.0205" cy="18.9796" rx="2.5" ry="2.62469" transform="rotate(-16.318 39.0205 18.9796)" fill="#EB00FF"/>
<ellipse cx="51.3227" cy="61.0003" rx="2.5" ry="2.62469" transform="rotate(-16.318 51.3227 61.0003)" fill="#EB00FF"/>
<ellipse cx="74.9044" cy="8.47419" rx="2.5" ry="2.62469" transform="rotate(-16.318 74.9044 8.47419)" fill="#EB00FF"/>
<ellipse cx="87.2065" cy="50.4948" rx="2.5" ry="2.62469" transform="rotate(-16.318 87.2065 50.4948)" fill="#EB00FF"/>
<ellipse cx="9.28775" cy="50.4952" rx="2.5" ry="2.62469" transform="rotate(-16.318 9.28775 50.4952)" fill="#EB00FF"/>
<ellipse cx="21.5898" cy="92.5156" rx="2.5" ry="2.62469" transform="rotate(-16.318 21.5898 92.5156)" fill="#EB00FF"/>
<ellipse cx="45.1715" cy="39.9898" rx="2.5" ry="2.62469" transform="rotate(-16.318 45.1715 39.9898)" fill="#EB00FF"/>
<ellipse cx="57.4735" cy="82.0102" rx="2.5" ry="2.62469" transform="rotate(-16.318 57.4735 82.0102)" fill="#EB00FF"/>
<ellipse cx="81.0555" cy="29.4844" rx="2.5" ry="2.62469" transform="rotate(-16.318 81.0555 29.4844)" fill="#EB00FF"/>
<ellipse cx="93.3573" cy="71.5048" rx="2.5" ry="2.62469" transform="rotate(-16.318 93.3573 71.5048)" fill="#EB00FF"/>
<ellipse cx="21.0786" cy="24.2323" rx="2.5" ry="2.62469" transform="rotate(-16.318 21.0786 24.2323)" fill="#EB00FF"/>
<ellipse cx="33.3806" cy="66.2529" rx="2.5" ry="2.62469" transform="rotate(-16.318 33.3806 66.2529)" fill="#EB00FF"/>
<ellipse cx="56.9626" cy="13.7269" rx="2.5" ry="2.62469" transform="rotate(-16.318 56.9626 13.7269)" fill="#EB00FF"/>
<ellipse cx="69.2646" cy="55.7475" rx="2.5" ry="2.62469" transform="rotate(-16.318 69.2646 55.7475)" fill="#EB00FF"/>
<ellipse cx="92.8463" cy="3.22148" rx="2.5" ry="2.62469" transform="rotate(-16.318 92.8463 3.22148)" fill="#EB00FF"/>
<ellipse cx="105.148" cy="45.2421" rx="2.5" ry="2.62469" transform="rotate(-16.318 105.148 45.2421)" fill="#EB00FF"/>
<ellipse cx="27.2296" cy="45.2425" rx="2.5" ry="2.62469" transform="rotate(-16.318 27.2296 45.2425)" fill="#EB00FF"/>
<ellipse cx="39.5316" cy="87.2629" rx="2.5" ry="2.62469" transform="rotate(-16.318 39.5316 87.2629)" fill="#EB00FF"/>
<ellipse cx="63.1136" cy="34.7371" rx="2.5" ry="2.62469" transform="rotate(-16.318 63.1136 34.7371)" fill="#EB00FF"/>
<ellipse cx="75.4154" cy="76.7575" rx="2.5" ry="2.62469" transform="rotate(-16.318 75.4154 76.7575)" fill="#EB00FF"/>
<ellipse cx="98.9973" cy="24.2317" rx="2.5" ry="2.62469" transform="rotate(-16.318 98.9973 24.2317)" fill="#EB00FF"/>
<ellipse cx="111.299" cy="66.2521" rx="2.5" ry="2.62469" transform="rotate(-16.318 111.299 66.2521)" fill="#EB00FF"/>
</svg>
